<svg width="126" height="81" viewBox="0 0 126 81" fill="none" xmlns="http://www.w3.org/2000/svg">
<path d="M84.2948 78.0204C79.9537 79.8064 75.539 80.6752 71.0509 80.627C66.5369 80.5192 62.1797 79.6101 57.9793 77.8997C53.84 76.1641 50.1185 73.7303 46.8147 70.5984C43.5109 67.4664 40.9033 63.6972 38.9921 59.2906C37.055 54.8245 36.029 50.2993 35.914 45.7151C35.8602 41.1058 36.6245 36.7213 38.2068 32.5616C39.8502 28.3767 42.2058 24.6709 45.2734 21.4439C48.3764 18.1323 52.0984 15.5835 56.4395 13.7975C61.6366 11.6594 66.9705 10.8334 72.4412 11.3195C77.886 11.7461 83.1538 13.5086 88.2444 16.6072L83.6596 23.2302C79.7064 20.9268 75.6868 19.6332 71.6008 19.3493C67.4889 19.0059 63.507 19.6266 59.6551 21.2113C56.2311 22.62 53.3487 24.6128 51.0079 27.1898C48.7025 29.6821 46.9528 32.5423 45.759 35.7702C44.6263 38.973 44.1071 42.3444 44.2015 45.8845C44.3312 49.3398 45.1321 52.7646 46.6043 56.1589C48.0248 59.434 49.9922 62.3088 52.5064 64.7831C54.9948 67.1979 57.8303 69.0839 61.0129 70.4412C64.1955 71.7985 67.5077 72.541 70.9496 72.6688C74.4527 72.7715 77.855 72.1436 81.1567 70.7853C85.7424 68.8987 89.2491 66.6841 91.6769 64.1415C94.1658 61.5737 95.7876 58.1697 96.5424 53.9294L80.8928 48.6031L103.391 23.0597L110.186 25.7467L118.462 5.8945L124.619 0.620605L125.257 8.58152L114.221 35.0511L104.227 31.9373L91.2637 46.078L105.264 50.6232C104.866 56.6818 102.634 63.7387 99.2393 67.8722C95.8796 71.921 90.8981 75.3037 84.2948 78.0204Z" fill="#9BA4B5" fill-opacity="0.5"/>
<path d="M34.2488 80.8844C29.5362 80.8844 25.1224 80.0117 21.0072 78.2663C16.8921 76.4563 13.2415 73.9676 10.0556 70.8C6.93604 67.6325 4.48022 63.9802 2.68813 59.843C0.896043 55.7058 0 51.2454 0 46.4618C0 41.6136 0.862857 37.0563 2.58857 32.7898C4.38066 28.5233 6.83648 24.774 9.95604 21.5419C13.142 18.3097 16.7925 15.7886 20.9077 13.9786C25.0892 12.104 29.5362 11.1666 34.2488 11.1666C39.8905 11.1666 45.134 12.4272 49.9793 14.9483C54.8246 17.4047 58.9729 21.0247 62.4244 25.8083L55.5547 30.1718C52.8334 26.5517 49.6474 23.8367 45.9969 22.0267C42.3463 20.152 38.4303 19.2147 34.2488 19.2147C30.5318 19.2147 27.0804 19.9581 23.8945 21.4449C20.7749 22.8671 18.0204 24.8387 15.631 27.3598C13.3079 29.8809 11.4826 32.7898 10.1552 36.0866C8.89406 39.3188 8.26351 42.7772 8.26351 46.4618C8.26351 50.0172 8.92725 53.411 10.2547 56.6432C11.5822 59.8107 13.4406 62.6227 15.8301 65.0791C18.2195 67.5355 20.9741 69.4748 24.0936 70.897C27.2795 72.3191 30.6646 73.0302 34.2488 73.0302C39.2268 73.0302 43.3419 72.3191 46.5943 70.897C49.9129 69.4748 52.767 66.9538 55.1564 63.3337V55.0917H28.5199V47.5285H63.42V65.273C60.6323 70.7031 56.849 74.6786 52.0701 77.1997C47.3575 79.6562 41.4171 80.8844 34.2488 80.8844Z" fill="#9BA4B5"/>
</svg>
