<svg width="428" height="145" viewBox="0 0 428 145" fill="none" xmlns="http://www.w3.org/2000/svg">
<rect x="81" width="347" height="145" rx="72.5" fill="#2E3D5B"/>
<path d="M190 51C190 48.2386 192.239 46 195 46H215C217.761 46 220 48.2386 220 51V145H190V51Z" fill="url(#paint0_linear_313_270)"/>
<path d="M288 75.6152C288 72.8538 290.239 70.6152 293 70.6152H313C315.761 70.6152 318 72.8537 318 75.6152V145H288V75.6152Z" fill="url(#paint1_linear_313_270)"/>
<path d="M141 75.6152C141 72.8538 143.239 70.6152 146 70.6152H166C168.761 70.6152 171 72.8537 171 75.6152V145H141V75.6152Z" fill="url(#paint2_linear_313_270)"/>
<path d="M337 66C337 63.2386 339.239 61 342 61H362C364.761 61 367 63.2386 367 66V145H337V66Z" fill="url(#paint3_linear_313_270)"/>
<path d="M239 100C239 97.2386 241.239 95 244 95H264C266.761 95 269 97.2386 269 100V145H239V100Z" fill="url(#paint4_linear_313_270)"/>
<path d="M46 72C46 58.8697 50.1243 46.9216 56.8698 38C64.3109 28.1586 74.9415 22 86.7443 22C91.7899 22 91.0626 29.9425 90.8182 32C89.9726 39.1187 67.1865 50.5776 67.1865 72C67.1865 94.1462 91.7119 105.93 90.8181 112.5C90.5974 114.122 91.2001 122 86.7443 122C74.9415 122 64.3109 115.841 56.8698 106C50.1243 97.0784 46 85.1303 46 72Z" fill="#2E3D5B"/>
<rect x="7" y="61" width="46" height="22" fill="#2E3D5B"/>
<rect y="34" width="18" height="76" rx="5" fill="#2E3D5B"/>
<defs>
<linearGradient id="paint0_linear_313_270" x1="205" y1="46" x2="205" y2="145" gradientUnits="userSpaceOnUse">
<stop offset="0.471" stop-color="#B8B8B8"/>
</linearGradient>
<linearGradient id="paint1_linear_313_270" x1="303" y1="70.6152" x2="303" y2="145" gradientUnits="userSpaceOnUse">
<stop offset="0.471" stop-color="#B8B8B8"/>
</linearGradient>
<linearGradient id="paint2_linear_313_270" x1="156" y1="70.6152" x2="156" y2="145" gradientUnits="userSpaceOnUse">
<stop offset="0.471" stop-color="#B8B8B8"/>
</linearGradient>
<linearGradient id="paint3_linear_313_270" x1="352" y1="61" x2="352" y2="145" gradientUnits="userSpaceOnUse">
<stop offset="0.471" stop-color="#B8B8B8"/>
</linearGradient>
<linearGradient id="paint4_linear_313_270" x1="254" y1="95" x2="254" y2="145" gradientUnits="userSpaceOnUse">
<stop offset="0.471" stop-color="#B8B8B8"/>
</linearGradient>
</defs>
</svg>
