<svg width="877" height="173" viewBox="0 0 877 173" fill="none" xmlns="http://www.w3.org/2000/svg">
<path d="M15.0469 117H4.17188C3.92188 117 3.79688 116.844 3.79688 116.531L3.98438 50.5781C3.98438 50.3281 4.10938 50.2031 4.35938 50.2031H16.0781C16.3281 50.2031 16.5469 50.3281 16.7344 50.5781L25.5 63.2344L34.2188 50.5781C34.4062 50.3281 34.6406 50.2031 34.9219 50.2031H46.6875C46.9688 50.2031 47.1094 50.3281 47.1094 50.5781L47.2969 116.531C47.2969 116.844 47.1719 117 46.9219 117H36.0469C35.7969 117 35.6719 116.844 35.6719 116.531L35.5781 67.5469L25.5 82.1719L15.5156 67.5469L15.4219 116.531C15.4219 116.844 15.2969 117 15.0469 117ZM86.7656 117H55.7344C55.4844 117 55.3594 116.844 55.3594 116.531L55.4531 50.5781C55.4531 50.3281 55.5781 50.2031 55.8281 50.2031H86.6719C86.9219 50.2031 87.0469 50.3594 87.0469 50.6719V61.4062C87.0469 61.6562 86.9219 61.7812 86.6719 61.7812H66.9844V76.7812H86.6719C86.9219 76.7812 87.0469 76.9062 87.0469 77.1562L87.1406 88.0312C87.1406 88.2812 87.0156 88.4062 86.7656 88.4062H66.9844V105.188H86.7656C87.0156 105.188 87.1406 105.344 87.1406 105.656V116.625C87.1406 116.875 87.0156 117 86.7656 117ZM116.156 117H105.328C105.047 117 104.906 116.844 104.906 116.531V61.7812H92.4375C92.125 61.7812 91.9688 61.625 91.9688 61.3125L92.0625 50.5781C92.0625 50.3281 92.1875 50.2031 92.4375 50.2031H128.906C129.25 50.2031 129.422 50.3281 129.422 50.5781V61.3125C129.422 61.625 129.297 61.7812 129.047 61.7812H116.438L116.531 116.531C116.531 116.844 116.406 117 116.156 117ZM130.875 116.531L142.781 50.5781C142.844 50.3281 143 50.2031 143.25 50.2031H157.172C157.422 50.2031 157.578 50.3281 157.641 50.5781L169.078 116.531C169.109 116.844 168.984 117 168.703 117H158.062C157.75 117 157.578 116.844 157.547 116.531L156.516 109.5H143.438L142.406 116.531C142.375 116.844 142.219 117 141.938 117H131.25C131 117 130.875 116.844 130.875 116.531ZM149.672 72.2812L145.359 99.2344H154.594L150.656 72.2812L150.094 68.7188L149.672 72.2812Z" fill="#3D4F75"/>
<path d="M191.391 117.938C187.984 117.938 184.844 117.062 181.969 115.312C179.125 113.562 176.844 111.234 175.125 108.328C173.438 105.391 172.594 102.172 172.594 98.6719V94.2656C172.594 93.9219 172.75 93.75 173.062 93.75H183.844C184.094 93.75 184.219 93.9219 184.219 94.2656V98.6719C184.219 100.766 184.922 102.578 186.328 104.109C187.734 105.609 189.422 106.359 191.391 106.359C193.391 106.359 195.094 105.594 196.5 104.062C197.906 102.5 198.609 100.703 198.609 98.6719C198.609 96.3281 197.078 94.2812 194.016 92.5312C193.516 92.2188 192.859 91.8438 192.047 91.4062C191.266 90.9375 190.328 90.4062 189.234 89.8125C188.141 89.2188 187.078 88.6406 186.047 88.0781C185.016 87.4844 184.016 86.9219 183.047 86.3906C179.547 84.3281 176.938 81.75 175.219 78.6562C173.531 75.5312 172.688 72.0312 172.688 68.1562C172.688 64.5938 173.562 61.375 175.312 58.5C177.062 55.6562 179.344 53.4062 182.156 51.75C185 50.0625 188.078 49.2188 191.391 49.2188C194.797 49.2188 197.922 50.0625 200.766 51.75C203.609 53.4688 205.875 55.75 207.562 58.5938C209.281 61.4375 210.141 64.625 210.141 68.1562V76.0312C210.141 76.2812 210.016 76.4062 209.766 76.4062H198.984C198.734 76.4062 198.609 76.2812 198.609 76.0312L198.516 68.1562C198.516 65.9062 197.812 64.0781 196.406 62.6719C195 61.2656 193.328 60.5625 191.391 60.5625C189.422 60.5625 187.734 61.3125 186.328 62.8125C184.922 64.3125 184.219 66.0938 184.219 68.1562C184.219 70.25 184.656 72 185.531 73.4062C186.438 74.8125 188.078 76.1562 190.453 77.4375C190.703 77.5625 191.281 77.875 192.188 78.375C193.094 78.875 194.094 79.4375 195.188 80.0625C196.312 80.6562 197.328 81.2031 198.234 81.7031C199.141 82.1719 199.688 82.4531 199.875 82.5469C203.062 84.3281 205.578 86.5156 207.422 89.1094C209.297 91.7031 210.234 94.8906 210.234 98.6719C210.234 102.328 209.391 105.609 207.703 108.516C205.984 111.422 203.703 113.719 200.859 115.406C198.016 117.094 194.859 117.938 191.391 117.938ZM228.141 117H217.359C217.047 117 216.891 116.844 216.891 116.531L217.078 50.5781C217.078 50.3281 217.203 50.2031 217.453 50.2031H235.922C241.797 50.2031 246.438 52 249.844 55.5938C253.281 59.1562 255 64.0156 255 70.1719C255 74.6719 254.109 78.5938 252.328 81.9375C250.516 85.25 248.172 87.8125 245.297 89.625C242.422 91.4375 239.297 92.3438 235.922 92.3438H228.609V116.531C228.609 116.844 228.453 117 228.141 117ZM235.922 61.5938L228.609 61.6875V80.7188H235.922C237.953 80.7188 239.719 79.75 241.219 77.8125C242.719 75.8438 243.469 73.2969 243.469 70.1719C243.469 67.6719 242.797 65.625 241.453 64.0312C240.109 62.4062 238.266 61.5938 235.922 61.5938ZM292.922 117H261.891C261.641 117 261.516 116.844 261.516 116.531L261.609 50.5781C261.609 50.3281 261.734 50.2031 261.984 50.2031H292.828C293.078 50.2031 293.203 50.3594 293.203 50.6719V61.4062C293.203 61.6562 293.078 61.7812 292.828 61.7812H273.141V76.7812H292.828C293.078 76.7812 293.203 76.9062 293.203 77.1562L293.297 88.0312C293.297 88.2812 293.172 88.4062 292.922 88.4062H273.141V105.188H292.922C293.172 105.188 293.297 105.344 293.297 105.656V116.625C293.297 116.875 293.172 117 292.922 117ZM333.234 117H302.203C301.953 117 301.828 116.844 301.828 116.531L301.922 50.5781C301.922 50.3281 302.047 50.2031 302.297 50.2031H333.141C333.391 50.2031 333.516 50.3594 333.516 50.6719V61.4062C333.516 61.6562 333.391 61.7812 333.141 61.7812H313.453V76.7812H333.141C333.391 76.7812 333.516 76.9062 333.516 77.1562L333.609 88.0312C333.609 88.2812 333.484 88.4062 333.234 88.4062H313.453V105.188H333.234C333.484 105.188 333.609 105.344 333.609 105.656V116.625C333.609 116.875 333.484 117 333.234 117ZM359.812 117.938C356.344 117.938 353.172 117.062 350.297 115.312C347.453 113.562 345.188 111.219 343.5 108.281C341.844 105.312 341.016 102.016 341.016 98.3906L341.109 68.4375C341.109 64.875 341.922 61.6562 343.547 58.7812C345.172 55.875 347.406 53.5469 350.25 51.7969C353.125 50.0156 356.312 49.125 359.812 49.125C363.375 49.125 366.547 49.9844 369.328 51.7031C372.141 53.4219 374.375 55.75 376.031 58.6875C377.719 61.5938 378.562 64.8438 378.562 68.4375V72.8438C378.562 73.0938 378.438 73.2188 378.188 73.2188H367.406C367.156 73.2188 367.031 73.0938 367.031 72.8438V68.4375C367.031 66.3125 366.344 64.4844 364.969 62.9531C363.594 61.4219 361.875 60.6562 359.812 60.6562C357.531 60.6562 355.781 61.4375 354.562 63C353.344 64.5625 352.734 66.375 352.734 68.4375V98.3906C352.734 100.734 353.422 102.656 354.797 104.156C356.172 105.625 357.844 106.359 359.812 106.359C361.875 106.359 363.594 105.547 364.969 103.922C366.344 102.266 367.031 100.422 367.031 98.3906V93.9375C367.031 93.6875 367.156 93.5625 367.406 93.5625H378.281C378.531 93.5625 378.656 93.6875 378.656 93.9375V98.3906C378.656 101.984 377.812 105.266 376.125 108.234C374.406 111.172 372.141 113.531 369.328 115.312C366.516 117.062 363.344 117.938 359.812 117.938ZM396.891 117H386.016C385.766 117 385.641 116.844 385.641 116.531L385.734 50.5781C385.734 50.3281 385.891 50.2031 386.203 50.2031H396.891C397.203 50.2031 397.359 50.3281 397.359 50.5781L397.266 76.6875H411.656V50.5781C411.656 50.3281 411.781 50.2031 412.031 50.2031H422.719C423.031 50.2031 423.188 50.3281 423.188 50.5781L423.375 116.531C423.375 116.844 423.219 117 422.906 117H412.125C411.812 117 411.656 116.844 411.656 116.531V88.3125H397.266V116.531C397.266 116.844 397.141 117 396.891 117Z" fill="black"/>
<rect x="530" y="12" width="347" height="145" rx="72.5" fill="#3D4F75"/>
<path d="M639 63C639 60.2386 641.239 58 644 58H664C666.761 58 669 60.2386 669 63V157H639V63Z" fill="url(#paint0_linear_313_269)"/>
<path d="M737 87.6152C737 84.8538 739.239 82.6152 742 82.6152H762C764.761 82.6152 767 84.8538 767 87.6152V157H737V87.6152Z" fill="url(#paint1_linear_313_269)"/>
<path d="M590 87.6152C590 84.8538 592.239 82.6152 595 82.6152H615C617.761 82.6152 620 84.8538 620 87.6152V157H590V87.6152Z" fill="url(#paint2_linear_313_269)"/>
<path d="M786 78C786 75.2386 788.239 73 791 73H811C813.761 73 816 75.2386 816 78V157H786V78Z" fill="url(#paint3_linear_313_269)"/>
<path d="M688 112C688 109.239 690.239 107 693 107H713C715.761 107 718 109.239 718 112V157H688V112Z" fill="url(#paint4_linear_313_269)"/>
<path d="M495 84C495 70.8697 499.124 58.9216 505.87 50C513.311 40.1586 523.942 34 535.744 34C540.79 34 540.063 41.9425 539.818 44C538.973 51.1187 516.186 62.5776 516.186 84C516.186 106.146 540.712 117.93 539.818 124.5C539.597 126.122 540.2 134 535.744 134C523.942 134 513.311 127.841 505.87 118C499.124 109.078 495 97.1303 495 84Z" fill="#3D4F75"/>
<rect x="456" y="73" width="46" height="22" fill="#3D4F75"/>
<rect x="449" y="46" width="18" height="76" rx="5" fill="#3D4F75"/>
<path d="M15.0469 117H4.17188C3.92188 117 3.79688 116.844 3.79688 116.531L3.98438 50.5781C3.98438 50.3281 4.10938 50.2031 4.35938 50.2031H16.0781C16.3281 50.2031 16.5469 50.3281 16.7344 50.5781L25.5 63.2344L34.2188 50.5781C34.4062 50.3281 34.6406 50.2031 34.9219 50.2031H46.6875C46.9688 50.2031 47.1094 50.3281 47.1094 50.5781L47.2969 116.531C47.2969 116.844 47.1719 117 46.9219 117H36.0469C35.7969 117 35.6719 116.844 35.6719 116.531L35.5781 67.5469L25.5 82.1719L15.5156 67.5469L15.4219 116.531C15.4219 116.844 15.2969 117 15.0469 117ZM86.7656 117H55.7344C55.4844 117 55.3594 116.844 55.3594 116.531L55.4531 50.5781C55.4531 50.3281 55.5781 50.2031 55.8281 50.2031H86.6719C86.9219 50.2031 87.0469 50.3594 87.0469 50.6719V61.4062C87.0469 61.6562 86.9219 61.7812 86.6719 61.7812H66.9844V76.7812H86.6719C86.9219 76.7812 87.0469 76.9062 87.0469 77.1562L87.1406 88.0312C87.1406 88.2812 87.0156 88.4062 86.7656 88.4062H66.9844V105.188H86.7656C87.0156 105.188 87.1406 105.344 87.1406 105.656V116.625C87.1406 116.875 87.0156 117 86.7656 117ZM116.156 117H105.328C105.047 117 104.906 116.844 104.906 116.531V61.7812H92.4375C92.125 61.7812 91.9688 61.625 91.9688 61.3125L92.0625 50.5781C92.0625 50.3281 92.1875 50.2031 92.4375 50.2031H128.906C129.25 50.2031 129.422 50.3281 129.422 50.5781V61.3125C129.422 61.625 129.297 61.7812 129.047 61.7812H116.438L116.531 116.531C116.531 116.844 116.406 117 116.156 117ZM130.875 116.531L142.781 50.5781C142.844 50.3281 143 50.2031 143.25 50.2031H157.172C157.422 50.2031 157.578 50.3281 157.641 50.5781L169.078 116.531C169.109 116.844 168.984 117 168.703 117H158.062C157.75 117 157.578 116.844 157.547 116.531L156.516 109.5H143.438L142.406 116.531C142.375 116.844 142.219 117 141.938 117H131.25C131 117 130.875 116.844 130.875 116.531ZM149.672 72.2812L145.359 99.2344H154.594L150.656 72.2812L150.094 68.7188L149.672 72.2812Z" fill="black"/>
<path d="M191.391 117.938C187.984 117.938 184.844 117.062 181.969 115.312C179.125 113.562 176.844 111.234 175.125 108.328C173.438 105.391 172.594 102.172 172.594 98.6719V94.2656C172.594 93.9219 172.75 93.75 173.062 93.75H183.844C184.094 93.75 184.219 93.9219 184.219 94.2656V98.6719C184.219 100.766 184.922 102.578 186.328 104.109C187.734 105.609 189.422 106.359 191.391 106.359C193.391 106.359 195.094 105.594 196.5 104.062C197.906 102.5 198.609 100.703 198.609 98.6719C198.609 96.3281 197.078 94.2812 194.016 92.5312C193.516 92.2188 192.859 91.8438 192.047 91.4062C191.266 90.9375 190.328 90.4062 189.234 89.8125C188.141 89.2188 187.078 88.6406 186.047 88.0781C185.016 87.4844 184.016 86.9219 183.047 86.3906C179.547 84.3281 176.938 81.75 175.219 78.6562C173.531 75.5312 172.688 72.0312 172.688 68.1562C172.688 64.5938 173.562 61.375 175.312 58.5C177.062 55.6562 179.344 53.4062 182.156 51.75C185 50.0625 188.078 49.2188 191.391 49.2188C194.797 49.2188 197.922 50.0625 200.766 51.75C203.609 53.4688 205.875 55.75 207.562 58.5938C209.281 61.4375 210.141 64.625 210.141 68.1562V76.0312C210.141 76.2812 210.016 76.4062 209.766 76.4062H198.984C198.734 76.4062 198.609 76.2812 198.609 76.0312L198.516 68.1562C198.516 65.9062 197.812 64.0781 196.406 62.6719C195 61.2656 193.328 60.5625 191.391 60.5625C189.422 60.5625 187.734 61.3125 186.328 62.8125C184.922 64.3125 184.219 66.0938 184.219 68.1562C184.219 70.25 184.656 72 185.531 73.4062C186.438 74.8125 188.078 76.1562 190.453 77.4375C190.703 77.5625 191.281 77.875 192.188 78.375C193.094 78.875 194.094 79.4375 195.188 80.0625C196.312 80.6562 197.328 81.2031 198.234 81.7031C199.141 82.1719 199.688 82.4531 199.875 82.5469C203.062 84.3281 205.578 86.5156 207.422 89.1094C209.297 91.7031 210.234 94.8906 210.234 98.6719C210.234 102.328 209.391 105.609 207.703 108.516C205.984 111.422 203.703 113.719 200.859 115.406C198.016 117.094 194.859 117.938 191.391 117.938ZM228.141 117H217.359C217.047 117 216.891 116.844 216.891 116.531L217.078 50.5781C217.078 50.3281 217.203 50.2031 217.453 50.2031H235.922C241.797 50.2031 246.438 52 249.844 55.5938C253.281 59.1562 255 64.0156 255 70.1719C255 74.6719 254.109 78.5938 252.328 81.9375C250.516 85.25 248.172 87.8125 245.297 89.625C242.422 91.4375 239.297 92.3438 235.922 92.3438H228.609V116.531C228.609 116.844 228.453 117 228.141 117ZM235.922 61.5938L228.609 61.6875V80.7188H235.922C237.953 80.7188 239.719 79.75 241.219 77.8125C242.719 75.8438 243.469 73.2969 243.469 70.1719C243.469 67.6719 242.797 65.625 241.453 64.0312C240.109 62.4062 238.266 61.5938 235.922 61.5938ZM292.922 117H261.891C261.641 117 261.516 116.844 261.516 116.531L261.609 50.5781C261.609 50.3281 261.734 50.2031 261.984 50.2031H292.828C293.078 50.2031 293.203 50.3594 293.203 50.6719V61.4062C293.203 61.6562 293.078 61.7812 292.828 61.7812H273.141V76.7812H292.828C293.078 76.7812 293.203 76.9062 293.203 77.1562L293.297 88.0312C293.297 88.2812 293.172 88.4062 292.922 88.4062H273.141V105.188H292.922C293.172 105.188 293.297 105.344 293.297 105.656V116.625C293.297 116.875 293.172 117 292.922 117ZM333.234 117H302.203C301.953 117 301.828 116.844 301.828 116.531L301.922 50.5781C301.922 50.3281 302.047 50.2031 302.297 50.2031H333.141C333.391 50.2031 333.516 50.3594 333.516 50.6719V61.4062C333.516 61.6562 333.391 61.7812 333.141 61.7812H313.453V76.7812H333.141C333.391 76.7812 333.516 76.9062 333.516 77.1562L333.609 88.0312C333.609 88.2812 333.484 88.4062 333.234 88.4062H313.453V105.188H333.234C333.484 105.188 333.609 105.344 333.609 105.656V116.625C333.609 116.875 333.484 117 333.234 117ZM359.812 117.938C356.344 117.938 353.172 117.062 350.297 115.312C347.453 113.562 345.188 111.219 343.5 108.281C341.844 105.312 341.016 102.016 341.016 98.3906L341.109 68.4375C341.109 64.875 341.922 61.6562 343.547 58.7812C345.172 55.875 347.406 53.5469 350.25 51.7969C353.125 50.0156 356.312 49.125 359.812 49.125C363.375 49.125 366.547 49.9844 369.328 51.7031C372.141 53.4219 374.375 55.75 376.031 58.6875C377.719 61.5938 378.562 64.8438 378.562 68.4375V72.8438C378.562 73.0938 378.438 73.2188 378.188 73.2188H367.406C367.156 73.2188 367.031 73.0938 367.031 72.8438V68.4375C367.031 66.3125 366.344 64.4844 364.969 62.9531C363.594 61.4219 361.875 60.6562 359.812 60.6562C357.531 60.6562 355.781 61.4375 354.562 63C353.344 64.5625 352.734 66.375 352.734 68.4375V98.3906C352.734 100.734 353.422 102.656 354.797 104.156C356.172 105.625 357.844 106.359 359.812 106.359C361.875 106.359 363.594 105.547 364.969 103.922C366.344 102.266 367.031 100.422 367.031 98.3906V93.9375C367.031 93.6875 367.156 93.5625 367.406 93.5625H378.281C378.531 93.5625 378.656 93.6875 378.656 93.9375V98.3906C378.656 101.984 377.812 105.266 376.125 108.234C374.406 111.172 372.141 113.531 369.328 115.312C366.516 117.062 363.344 117.938 359.812 117.938ZM396.891 117H386.016C385.766 117 385.641 116.844 385.641 116.531L385.734 50.5781C385.734 50.3281 385.891 50.2031 386.203 50.2031H396.891C397.203 50.2031 397.359 50.3281 397.359 50.5781L397.266 76.6875H411.656V50.5781C411.656 50.3281 411.781 50.2031 412.031 50.2031H422.719C423.031 50.2031 423.188 50.3281 423.188 50.5781L423.375 116.531C423.375 116.844 423.219 117 422.906 117H412.125C411.812 117 411.656 116.844 411.656 116.531V88.3125H397.266V116.531C397.266 116.844 397.141 117 396.891 117Z" fill="#3D4F75"/>
<rect x="530" y="12" width="347" height="145" rx="72.5" fill="#3D4F75"/>
<path d="M639 63C639 60.2386 641.239 58 644 58H664C666.761 58 669 60.2386 669 63V157H639V63Z" fill="url(#paint5_linear_313_269)"/>
<path d="M737 87.6152C737 84.8538 739.239 82.6152 742 82.6152H762C764.761 82.6152 767 84.8538 767 87.6152V157H737V87.6152Z" fill="url(#paint6_linear_313_269)"/>
<path d="M590 87.6152C590 84.8538 592.239 82.6152 595 82.6152H615C617.761 82.6152 620 84.8538 620 87.6152V157H590V87.6152Z" fill="url(#paint7_linear_313_269)"/>
<path d="M786 78C786 75.2386 788.239 73 791 73H811C813.761 73 816 75.2386 816 78V157H786V78Z" fill="url(#paint8_linear_313_269)"/>
<path d="M688 112C688 109.239 690.239 107 693 107H713C715.761 107 718 109.239 718 112V157H688V112Z" fill="url(#paint9_linear_313_269)"/>
<path d="M495 84C495 70.8697 499.124 58.9216 505.87 50C513.311 40.1586 523.942 34 535.744 34C540.79 34 540.063 41.9425 539.818 44C538.973 51.1187 516.186 62.5776 516.186 84C516.186 106.146 540.712 117.93 539.818 124.5C539.597 126.122 540.2 134 535.744 134C523.942 134 513.311 127.841 505.87 118C499.124 109.078 495 97.1303 495 84Z" fill="#3D4F75"/>
<rect x="456" y="73" width="46" height="22" fill="#3D4F75"/>
<rect x="449" y="46" width="18" height="76" rx="5" fill="#3D4F75"/>
<defs>
<linearGradient id="paint0_linear_313_269" x1="654" y1="58" x2="654" y2="157" gradientUnits="userSpaceOnUse">
<stop offset="0.471" stop-color="#F1F6F9"/>
</linearGradient>
<linearGradient id="paint1_linear_313_269" x1="752" y1="82.6152" x2="752" y2="157" gradientUnits="userSpaceOnUse">
<stop offset="0.471" stop-color="#F1F6F9"/>
</linearGradient>
<linearGradient id="paint2_linear_313_269" x1="605" y1="82.6152" x2="605" y2="157" gradientUnits="userSpaceOnUse">
<stop offset="0.471" stop-color="#F1F6F9"/>
</linearGradient>
<linearGradient id="paint3_linear_313_269" x1="801" y1="73" x2="801" y2="157" gradientUnits="userSpaceOnUse">
<stop offset="0.471" stop-color="#F1F6F9"/>
</linearGradient>
<linearGradient id="paint4_linear_313_269" x1="703" y1="107" x2="703" y2="157" gradientUnits="userSpaceOnUse">
<stop offset="0.471" stop-color="#F1F6F9"/>
</linearGradient>
<linearGradient id="paint5_linear_313_269" x1="654" y1="58" x2="654" y2="157" gradientUnits="userSpaceOnUse">
<stop offset="0.471" stop-color="#F1F6F9"/>
</linearGradient>
<linearGradient id="paint6_linear_313_269" x1="752" y1="82.6152" x2="752" y2="157" gradientUnits="userSpaceOnUse">
<stop offset="0.471" stop-color="#F1F6F9"/>
</linearGradient>
<linearGradient id="paint7_linear_313_269" x1="605" y1="82.6152" x2="605" y2="157" gradientUnits="userSpaceOnUse">
<stop offset="0.471" stop-color="#F1F6F9"/>
</linearGradient>
<linearGradient id="paint8_linear_313_269" x1="801" y1="73" x2="801" y2="157" gradientUnits="userSpaceOnUse">
<stop offset="0.471" stop-color="#F1F6F9"/>
</linearGradient>
<linearGradient id="paint9_linear_313_269" x1="703" y1="107" x2="703" y2="157" gradientUnits="userSpaceOnUse">
<stop offset="0.471" stop-color="#F1F6F9"/>
</linearGradient>
</defs>
</svg>
