<svg width="584" height="307" viewBox="0 0 584 307" fill="none" xmlns="http://www.w3.org/2000/svg">
<path d="M140.041 269.621C131.7 273.144 123.218 274.858 114.595 274.763C105.922 274.55 97.55 272.757 89.4796 269.383C81.5267 265.96 74.3763 261.159 68.0286 254.981C61.6808 248.803 56.6708 241.368 52.9987 232.675C49.2769 223.865 47.3056 214.939 47.0847 205.897C46.9814 196.804 48.4498 188.155 51.4899 179.95C54.6475 171.695 59.1733 164.385 65.0673 158.02C71.0291 151.487 78.1804 146.46 86.5212 142.937C96.5065 138.719 106.755 137.09 117.266 138.048C127.727 138.89 137.848 142.367 147.629 148.479L138.82 161.543C131.225 157 123.502 154.448 115.651 153.888C107.751 153.211 100.1 154.435 92.6993 157.561C86.1207 160.34 80.5827 164.271 76.0853 169.354C71.6556 174.27 68.2939 179.912 66.0002 186.279C63.8239 192.597 62.8264 199.248 63.0077 206.231C63.2569 213.047 64.7957 219.802 67.6243 226.498C70.3536 232.958 74.1336 238.629 78.9643 243.51C83.7454 248.273 89.1934 251.993 95.3082 254.671C101.423 257.348 107.787 258.813 114.4 259.065C121.131 259.267 127.668 258.029 134.011 255.349C142.822 251.628 149.56 247.26 154.224 242.244C159.006 237.179 162.122 230.464 163.572 222.1L133.504 211.593L176.731 161.207L189.786 166.507L200.387 140.401L228.169 73.686L256.049 10.3605L268.004 0.398478L267.008 14.3453L240.262 78.7069L213.442 145.701L197.539 184.861L178.338 178.719L153.43 206.612L180.33 215.578C179.565 227.529 175.277 241.449 168.754 249.603C162.299 257.59 152.728 264.262 140.041 269.621Z" fill="#212A3E"/>
<path d="M223.681 268.337C218.07 268.337 212.778 267.317 207.804 265.277C202.831 263.237 198.75 260.176 195.562 256.096C192.501 251.888 190.971 246.596 190.971 240.22C190.971 230.019 193.776 222.241 199.387 216.885C204.998 211.402 212.905 208.023 223.107 206.748C233.437 205.345 245.552 205.791 259.452 208.087V200.627C259.452 195.144 257.858 190.809 254.67 187.621C251.482 184.433 247.401 182.329 242.427 181.309C237.454 180.161 232.225 180.034 226.742 180.926C221.386 181.691 216.412 183.349 211.821 185.899C207.23 188.45 203.787 191.829 201.491 196.037L194.414 188.768C197.857 184.05 202.065 180.289 207.039 177.483C212.012 174.678 217.241 172.765 222.725 171.745C228.336 170.725 233.819 170.534 239.175 171.171C244.659 171.809 249.569 173.148 253.905 175.188C259.516 177.738 263.405 181.245 265.573 185.708C267.741 190.171 268.953 195.335 269.208 201.201C269.59 207.067 269.782 213.506 269.782 220.519L269.591 267.381H259.643V258.391C254.542 261.579 248.804 264.065 242.427 265.851C236.179 267.508 229.93 268.337 223.681 268.337ZM259.643 247.68V216.885C248.804 215.1 238.857 214.59 229.802 215.355C220.875 216.12 213.734 218.479 208.378 222.432C203.149 226.385 200.535 232.314 200.535 240.22C200.535 245.066 201.938 248.891 204.743 251.697C207.549 254.502 211.247 256.415 215.838 257.435C220.429 258.327 225.403 258.519 230.759 258.008C236.115 257.371 241.343 256.159 246.444 254.374C251.546 252.589 255.945 250.358 259.643 247.68Z" fill="#3D4F75" fill-opacity="0.8"/>
<path d="M316.065 268.337C302.42 268.337 291.835 263.874 284.311 254.948C276.914 245.895 273.216 233.972 273.216 219.18C273.216 209.489 274.938 201.073 278.381 193.933C281.952 186.664 287.053 180.99 293.684 176.91C300.315 172.829 308.286 170.789 317.595 170.789C321.676 170.789 325.757 171.044 329.838 171.554C334.046 171.937 339.275 173.467 345.523 176.145V133.491H355.47V267.381H345.523V257.626C341.825 260.049 337.681 262.471 333.09 264.894C328.626 267.189 322.951 268.337 316.065 268.337ZM345.523 249.019V185.899C337.362 182.456 329.519 180.544 321.995 180.161C314.598 179.779 307.967 180.99 302.101 183.795C296.362 186.473 291.771 190.809 288.328 196.802C285.012 202.667 283.354 210.127 283.354 219.18C283.354 228.361 285.14 236.076 288.71 242.324C292.409 248.572 297.255 253.099 303.248 255.904C309.37 258.582 316.065 259.411 323.334 258.391C330.73 257.371 338.127 254.247 345.523 249.019Z" fill="#3D4F75" fill-opacity="0.8"/>
<path d="M403.012 306.4C397.656 306.4 392.618 305.571 387.9 303.913C383.182 302.256 378.591 299.961 374.127 297.028L380.44 289.377C384.393 291.8 388.729 293.649 393.447 294.924C398.293 296.199 403.012 296.709 407.603 296.454C412.321 296.199 416.466 295.051 420.037 293.011C423.735 291.098 426.477 288.165 428.262 284.213C429.792 280.77 430.749 277.327 431.131 273.884C431.641 270.569 431.897 266.106 431.897 260.495C423.735 265.213 415.446 267.636 407.029 267.763C398.612 268.018 390.769 266.297 383.5 262.599C376.359 258.774 370.556 253.418 366.093 246.532C361.63 239.519 359.207 231.358 358.824 222.05C358.441 210.701 360.227 201.265 364.18 193.741C368.133 186.091 373.617 180.352 380.631 176.527C387.645 172.702 395.552 170.853 404.351 170.98C413.278 170.98 422.46 173.02 431.897 177.101V171.745H442.035V267.381C442.035 279.495 438.91 288.994 432.662 295.88C426.413 302.893 416.53 306.4 403.012 306.4ZM368.962 222.05C369.217 229.7 371.194 236.204 374.892 241.559C378.718 246.915 383.692 250.931 389.813 253.609C396.062 256.159 402.821 257.18 410.09 256.67C417.486 256.032 424.755 253.737 431.897 249.784V187.621C419.399 182.775 408.304 180.735 398.612 181.5C389.048 182.265 381.651 185.963 376.423 192.594C371.194 199.225 368.707 209.043 368.962 222.05Z" fill="#3D4F75" fill-opacity="0.8"/>
<path d="M535.076 221.476H455.691C455.691 231.422 457.859 239.455 462.195 245.576C466.658 251.569 472.461 255.713 479.602 258.008C486.871 260.176 494.65 260.431 502.94 258.774C511.356 257.116 519.518 253.482 527.425 247.871L532.398 255.904C526.659 260.24 520.538 263.492 514.034 265.659C507.658 267.699 501.09 268.847 494.332 269.102C478.646 269.74 466.467 265.404 457.795 256.096C449.124 246.66 444.788 233.653 444.788 217.076C444.788 202.795 448.677 191.51 456.456 183.222C464.235 174.933 476.032 170.789 491.845 170.789C501.664 170.789 510.081 172.829 517.095 176.91C524.237 180.99 529.401 187.047 532.589 195.08C533.992 198.651 534.885 202.667 535.268 207.13C535.65 211.593 535.586 216.375 535.076 221.476ZM491.845 180.352C485.596 180.352 479.73 181.373 474.246 183.413C468.763 185.453 464.299 188.768 460.856 193.359C457.413 197.822 455.691 203.943 455.691 211.721H525.512C525.512 201.01 522.451 193.104 516.33 188.003C510.209 182.903 502.047 180.352 491.845 180.352Z" fill="#3D4F75" fill-opacity="0.8"/>
<path d="M555.689 227.596V181.118H537.325V171.745H555.689V133.491H565.828V171.745H584V181.118H565.828V227.596C565.828 236.012 565.764 242.388 565.636 246.723C565.636 251.059 566.274 253.992 567.549 255.522C568.824 257.052 571.439 257.881 575.392 258.008H581.131V267.955H575.966C570.865 267.955 566.912 267.444 564.106 266.424C561.3 265.277 559.324 263.3 558.176 260.495C557.028 257.562 556.327 253.482 556.072 248.254C555.817 242.898 555.689 236.012 555.689 227.596Z" fill="#3D4F75" fill-opacity="0.8"/>
<path d="M65.8035 139.787C56.7492 139.787 48.2687 138.066 40.3621 134.623C32.4554 131.052 25.4415 126.143 19.3202 119.895C13.3265 113.647 8.60802 106.442 5.16481 98.2813C1.7216 90.1204 0 81.3219 0 71.8859C0 62.3224 1.65784 53.3327 4.97352 44.9167C8.41673 36.5008 13.1352 29.105 19.1289 22.7293C25.2502 16.3536 32.2641 11.3806 40.1708 7.81019C48.2049 4.11228 56.7492 2.26333 65.8035 2.26333C76.6433 2.26333 86.7178 4.74985 96.0273 9.7229C105.337 14.5684 113.307 21.7092 119.938 31.1452L106.739 39.7524C101.511 32.6116 95.3896 27.2561 88.3757 23.6857C81.3617 19.9878 73.8377 18.1388 65.8035 18.1388C58.6621 18.1388 52.0307 19.6052 45.9095 22.538C39.9157 25.3433 34.6234 29.2325 30.0324 34.2056C25.569 39.1786 22.062 44.9167 19.5115 51.4199C17.0885 57.7956 15.877 64.6176 15.877 71.8859C15.877 78.8992 17.1523 85.5937 19.7028 91.9694C22.2533 98.2175 25.8241 103.764 30.415 108.61C35.006 113.455 40.2983 117.281 46.292 120.086C52.4133 122.891 58.9171 124.294 65.8035 124.294C75.368 124.294 83.2746 122.891 89.5234 120.086C95.8997 117.281 101.383 112.308 105.974 105.167V88.909H82.4457V73.9899H121.851V108.992C116.495 119.704 109.226 127.546 100.044 132.519C90.99 137.364 79.5764 139.787 65.8035 139.787Z" fill="#212A3E"/>
<path d="M137.091 133.89V40.1669H147.038V50.113C150.864 45.65 155.582 42.5259 161.193 40.7407C166.932 38.9555 174.775 39.4018 184.722 42.0796L180.513 51.2606C175.795 49.4754 171.395 48.9653 167.314 49.7304C163.234 50.368 159.663 51.8982 156.602 54.3209C153.542 56.6162 151.182 59.3577 149.525 62.5456C147.867 65.6059 147.038 68.73 147.038 71.9178V133.89H137.091Z" fill="#3D4F75" fill-opacity="0.8"/>
<path d="M207.733 134.846C202.122 134.846 196.83 133.826 191.856 131.786C186.883 129.745 182.802 126.685 179.614 122.605C176.553 118.397 175.023 113.105 175.023 106.729C175.023 96.528 177.828 88.7497 183.44 83.3941C189.051 77.911 196.957 74.5319 207.159 73.2567C217.489 71.8541 229.604 72.3004 243.504 74.5956V67.1361C243.504 61.653 241.91 57.3175 238.722 54.1297C235.534 50.9418 231.453 48.8378 226.48 47.8177C221.506 46.6701 216.278 46.5426 210.794 47.4352C205.438 48.2003 200.464 49.8579 195.873 52.4082C191.282 54.9585 187.839 58.3376 185.544 62.5456L178.466 55.2773C181.909 50.5593 186.118 46.7976 191.091 43.9923C196.065 41.187 201.293 39.2743 206.777 38.2542C212.388 37.2341 217.872 37.0428 223.228 37.6804C228.711 38.3179 233.621 39.6568 237.957 41.697C243.568 44.2473 247.458 47.754 249.626 52.2169C251.794 56.6799 253.005 61.8442 253.26 67.7099C253.643 73.5755 253.834 80.015 253.834 87.0282L253.643 133.89H243.696V124.9C238.595 128.088 232.856 130.574 226.48 132.359C220.231 134.017 213.982 134.846 207.733 134.846ZM243.696 114.189V83.3941C232.856 81.6089 222.909 81.0989 213.855 81.8639C204.928 82.629 197.786 84.988 192.43 88.9409C187.202 92.8939 184.587 98.8233 184.587 106.729C184.587 111.575 185.99 115.4 188.796 118.205C191.601 121.011 195.299 122.923 199.89 123.944C204.481 124.836 209.455 125.027 214.811 124.517C220.167 123.88 225.396 122.668 230.497 120.883C235.598 119.098 239.997 116.867 243.696 114.189Z" fill="#3D4F75" fill-opacity="0.8"/>
<path d="M269.32 172.144H259.372V38.2542H269.32V44.1836C279.139 39.7206 288.385 37.4253 297.056 37.2978C305.728 37.1703 313.38 39.083 320.011 43.0359C326.77 46.8614 332.062 52.472 335.888 59.8678C339.714 67.1361 341.627 75.9983 341.627 86.4544C341.627 96.018 339.842 104.434 336.271 111.702C332.828 118.97 327.79 124.645 321.159 128.725C314.528 132.806 306.557 134.846 297.248 134.846C293.167 134.846 288.831 134.463 284.24 133.698C279.649 132.806 274.676 130.766 269.32 127.578V172.144ZM269.32 116.484C276.844 121.074 284.24 123.752 291.509 124.517C298.906 125.282 305.601 124.326 311.594 121.648C317.588 118.97 322.37 114.635 325.941 108.642C329.639 102.649 331.489 95.2529 331.489 86.4544C331.489 77.5285 329.639 70.0689 325.941 64.0757C322.37 57.9551 317.524 53.5558 311.403 50.8781C305.409 48.0727 298.714 47.1164 291.318 48.009C284.049 48.7741 276.716 51.6431 269.32 56.6162V116.484Z" fill="#3D4F75" fill-opacity="0.8"/>
<path d="M427.617 133.89H417.67V75.7433C417.67 65.5422 414.737 58.0826 408.871 53.3646C403.132 48.6466 395.608 46.2876 386.299 46.2876C381.325 46.2876 376.479 47.3077 371.761 49.3479C367.042 51.3881 363.153 54.0021 360.092 57.19C357.032 60.3778 355.501 63.6932 355.501 67.1361V133.89H345.554V0H355.501V50.4955C358.052 47.3077 361.049 44.7574 364.492 42.8447C368.063 40.932 371.697 39.5293 375.395 38.6367C379.094 37.7441 382.409 37.2978 385.342 37.2978C398.35 37.2978 408.616 40.4857 416.14 46.8614C423.792 53.1095 427.617 62.7368 427.617 75.7433V133.89Z" fill="#3D4F75" fill-opacity="0.8"/>
<path d="M230 69.5L242.052 74.3738L228.5 108L233.5 85.5L224.5 82.5L230 69.5Z" fill="#212A3E"/>
<path d="M241.5 43L263.5 22L225.5 115.5L240 63.5L236 56L241.5 43Z" fill="#212A3E"/>
<path d="M258.5 34.5L236.649 88.0217L228.549 75.7275L258.5 34.5Z" fill="#212A3E"/>
</svg>
